# File created by Blade
# Date/Time:  Wed Jan 21 16:33:30 2015
# Frame Rate: 120.000 fps
#------------------------------------------------------
:FULLY-SPECIFIED
:DEGREES
313
root 30.359636 8.244640 -23.733456 -232.871593 90.957753 -200.888410
Spine 78.513434 6.086007 0.731134
Head 6.080377 0.431015 4.317718
LeftShoulder 5.546859 -17.051142 -2.561695
LeftArm -0.435763 47.278897 -77.913825
LeftForeArm 13.803500 -0.000000 8.772310
LeftHand 2.542848 -0.000000 45.733138
LeftHandThumb1 -26.253704 0.000000 33.147579
RightShoulder 7.302265 -19.386428 -0.814805
RightArm 44.462094 -38.564552 38.018463
RightForeArm -18.631126 -0.000000 22.069054
RightHand -7.641254 -0.000000 -25.467698
RightHandThumb1 -24.326973 -0.000000 -32.862282
LeftUpLeg -90.554220 1.539191 -10.446317
LeftLeg 145.187227 -0.000000 -0.000000
LeftFoot -45.480032 33.890765 -17.587682
LeftToeBase 21.327133 -0.000000 -0.000000
RightUpLeg -90.412857 8.539856 14.801102
RightLeg 143.177763 -0.000000 -0.000000
RightFoot -43.611068 -37.076864 19.884438
RightToeBase 19.681282 -0.000000 -0.000000
314
root 30.385026 8.047875 -23.711293 -235.521107 91.029352 -202.003882
Spine 78.895236 6.184919 0.770348
Head 6.448424 0.507733 4.495672
LeftShoulder 5.587759 -17.338528 -2.420242
LeftArm -2.155604 47.230716 -79.703477
LeftForeArm 13.721110 -0.000000 7.886123
LeftHand 3.005655 -0.000000 50.389394
LeftHandThumb1 -26.253704 0.000000 33.147579
RightShoulder 7.213403 -19.264715 -0.938823
RightArm 43.968859 -39.193669 39.121121
RightForeArm -19.722223 -0.000000 21.267660
RightHand -7.131510 -0.000000 -27.419984
RightHandThumb1 -24.326973 -0.000000 -32.862282
LeftUpLeg -90.164020 1.856515 -10.391293
LeftLeg 145.802179 -0.000000 -0.000000
LeftFoot -44.740657 34.008677 -17.188800
LeftToeBase 20.970920 -0.000000 -0.000000
RightUpLeg -89.844284 8.378722 15.338458
RightLeg 143.674821 -0.000000 -0.000000
RightFoot -43.281466 -37.383895 19.689989
RightToeBase 19.570504 -0.000000 -0.000000
315
root 30.430336 7.797232 -23.716097 -240.109474 90.842991 -205.432372
Spine 78.609706 6.105911 0.593759
Head 7.179011 0.545090 4.584600
LeftShoulder 5.388414 -17.041859 -2.361151
LeftArm -3.327840 46.970904 -80.885236
LeftForeArm 13.886924 -0.000000 7.215921
LeftHand 3.324824 -0.000000 54.785962
LeftHandThumb1 -26.253704 0.000000 33.147579
RightShoulder 7.047557 -19.332826 -0.940040
RightArm 43.532858 -40.206908 39.952727
RightForeArm -20.749609 0.000000 20.308999
RightHand -7.167377 -0.000000 -30.392886
RightHandThumb1 -24.326973 -0.000000 -32.862282
LeftUpLeg -90.277400 1.760454 -10.670904
LeftLeg 146.492443 -0.000000 -0.000000
LeftFoot -44.086172 34.335685 -16.786649
LeftToeBase 20.563479 -0.000000 -0.000000
RightUpLeg -90.004443 8.122929 15.476845
RightLeg 144.424131 -0.000000 -0.000000
RightFoot -42.707644 -37.446809 19.288702
RightToeBase 19.457505 -0.000000 -0.000000
316
root 30.462614 7.592763 -23.705045 -243.740646 90.816664 -207.655993
Spine 78.728975 6.142992 0.608105
Head 7.706445 0.568862 4.722483
LeftShoulder 5.274403 -17.008430 -2.231377
LeftArm -4.609254 46.069520 -82.124845
LeftForeArm 14.182457 -0.000000 6.606739
LeftHand 5.107718 0.000000 59.064360
LeftHandThumb1 -26.253704 0.000000 33.147579
RightShoulder 6.962408 -19.352632 -1.110603
RightArm 43.215988 -41.383255 40.670049
RightForeArm -21.238561 -0.000000 19.281024
RightHand -7.120533 -0.000000 -34.291450
RightHandThumb1 -24.326973 -0.000000 -32.862282
LeftUpLeg -90.034874 1.931741 -10.735260
LeftLeg 147.096841 -0.000000 -0.000000
LeftFoot -43.555462 34.363157 -16.504359
LeftToeBase 20.345051 -0.000000 -0.000000
RightUpLeg -89.698903 7.920708 15.867451
RightLeg 144.974511 -0.000000 -0.000000
RightFoot -42.140746 -37.487743 19.199991
RightToeBase 18.351973 -0.000000 -0.000000
317
root 30.488794 7.408628 -23.694338 -245.393972 90.805618 -207.850849
Spine 78.969319 6.228463 0.704774
Head 8.059487 0.422709 4.817151
LeftShoulder 5.041014 -16.963409 -2.090095
LeftArm -5.500121 45.155817 -83.028621
LeftForeArm 14.673973 -0.000000 6.227256
LeftHand 5.883379 -0.000000 62.644267
LeftHandThumb1 -26.253704 0.000000 33.147579
RightShoulder 6.812227 -19.337348 -1.350775
RightArm 42.596742 -42.360311 41.735328
RightForeArm -21.392928 -0.000000 18.630195
RightHand -7.241775 -0.000000 -38.439024
RightHandThumb1 -24.326973 -0.000000 -32.862282
LeftUpLeg -89.684381 2.167748 -10.838659
LeftLeg 147.647234 -0.000000 -0.000000
LeftFoot -43.260244 34.226416 -16.581766
LeftToeBase 20.097733 -0.000000 -0.000000
RightUpLeg -89.274902 7.725012 16.213207
RightLeg 145.447422 -0.000000 -0.000000
RightFoot -41.583374 -37.733978 18.880323
RightToeBase 18.422584 -0.000000 -0.000000
318
root 30.517568 7.212551 -23.683887 -246.595517 90.801470 -207.745824
Spine 78.950002 6.341143 0.804505
Head 8.548093 0.316713 4.959527
LeftShoulder 4.662927 -16.806793 -2.005867
LeftArm -6.254881 44.359390 -83.737430
LeftForeArm 15.129623 -0.000000 6.057125
LeftHand 6.155322 -0.000000 66.703319
LeftHandThumb1 -26.253704 0.000000 33.147579
RightShoulder 6.561944 -19.810426 -1.571759
RightArm 42.153885 -42.873262 42.628886
RightForeArm -21.837189 -0.000000 18.317944
RightHand -6.908839 0.000000 -41.658973
RightHandThumb1 -24.326973 -0.000000 -32.862282
LeftUpLeg -89.571130 2.346839 -10.946409
LeftLeg 148.203765 -0.000000 -0.000000
LeftFoot -42.950170 34.218057 -16.586336
LeftToeBase 20.142512 -0.000000 -0.000000
RightUpLeg -89.063514 7.598657 16.557098
RightLeg 145.938958 -0.000000 -0.000000
RightFoot -41.028269 -37.983471 18.564163
RightToeBase 17.411092 -0.000000 -0.000000
319
root 30.541544 7.026543 -23.670734 -246.361906 90.812970 -206.221242
Spine 78.921754 6.504079 0.995438
Head 8.995499 0.060257 5.134016
LeftShoulder 4.315839 -16.713091 -1.921313
LeftArm -7.018324 43.374341 -84.358452
LeftForeArm 15.939141 0.000000 6.030601
LeftHand 6.710172 0.000000 70.619001
LeftHandThumb1 -26.253704 0.000000 33.147579
RightShoulder 6.176538 -20.436968 -1.760245
RightArm 41.634627 -43.037904 43.652600
RightForeArm -22.346531 -0.000000 18.321011
RightHand -6.967488 -0.000000 -44.770674
RightHandThumb1 -24.326973 -0.000000 -32.862282
LeftUpLeg -89.429698 2.566982 -10.999143
LeftLeg 148.726615 -0.000000 -0.000000
LeftFoot -42.424975 34.269620 -16.368430
LeftToeBase 19.943656 -0.000000 -0.000000
RightUpLeg -88.818021 7.480869 16.880697
RightLeg 146.399001 -0.000000 -0.000000
RightFoot -40.489588 -38.075879 18.176391
RightToeBase 16.327010 -0.000000 -0.000000
320
root 30.568889 6.836115 -23.660917 -248.280259 90.805969 -206.968088
Spine 78.717829 6.643568 1.213565
Head 9.525933 -0.191957 5.311927
LeftShoulder 3.872913 -16.733316 -1.769858
LeftArm -7.911837 42.444562 -85.158081
LeftForeArm 16.722620 -0.000000 6.068560
LeftHand 6.998118 0.000000 73.931225
LeftHandThumb1 -26.253704 0.000000 33.147579
RightShoulder 5.708214 -21.186542 -1.886879
RightArm 41.306782 -43.206197 44.385336
RightForeArm -22.578295 -0.000000 18.325899
RightHand -6.605228 0.000000 -47.294638
RightHandThumb1 -24.326973 -0.000000 -32.862282
LeftUpLeg -89.448296 2.694850 -11.094034
LeftLeg 149.203919 -0.000000 -0.000000
LeftFoot -41.670830 34.523444 -15.971035
LeftToeBase 19.852239 -0.000000 -0.000000
RightUpLeg -88.744489 7.365999 17.183729
RightLeg 146.894027 -0.000000 -0.000000
RightFoot -39.680033 -38.292367 17.453111
RightToeBase 16.866479 -0.000000 -0.000000
321
root 30.583424 6.677796 -23.653766 -244.721661 90.754853 -202.132194
Spine 78.718735 6.837914 1.323698
Head 9.882830 -0.446483 5.462468
LeftShoulder 3.269939 -16.639180 -1.411836
LeftArm -8.515379 41.575160 -85.788380
LeftForeArm 17.841426 -0.000000 6.252372
LeftHand 7.460279 -0.000000 76.949238
LeftHandThumb1 -26.253704 0.000000 33.147579
RightShoulder 5.284634 -21.662140 -1.996430
RightArm 40.931176 -43.382154 45.150964
RightForeArm -23.078205 0.000000 18.217828
RightHand -5.727068 -0.000000 -48.858058
RightHandThumb1 -24.326973 -0.000000 -32.862282
LeftUpLeg -89.249004 2.922204 -11.275524
LeftLeg 149.573061 -0.000000 -0.000000
LeftFoot -40.905772 34.625190 -15.900337
LeftToeBase 19.208348 -0.000000 -0.000000
RightUpLeg -88.459572 7.226541 17.487417
RightLeg 147.271853 -0.000000 -0.000000
RightFoot -39.091031 -38.241652 17.455089
RightToeBase 15.571855 -0.000000 -0.000000
322
root 30.605177 6.504130 -23.645208 -249.548592 90.843675 -205.858293
Spine 78.415176 6.912248 1.664404
Head 10.447369 -0.783132 5.493404
LeftShoulder 2.756602 -16.569716 -0.952761
LeftArm -9.474873 39.654143 -86.494769
LeftForeArm 20.007851 -0.000000 6.900048
LeftHand 7.910574 0.000000 79.335550
LeftHandThumb1 -26.253704 0.000000 33.147579
RightShoulder 4.802885 -21.935866 -2.010174
RightArm 40.272069 -43.894139 45.900218
RightForeArm -23.229702 0.000000 18.195771
RightHand -5.745546 -0.000000 -51.799652
RightHandThumb1 -24.326973 -0.000000 -32.862282
LeftUpLeg -89.344168 3.049138 -11.276160
LeftLeg 150.010786 -0.000000 -0.000000
LeftFoot -40.253564 34.871449 -15.759699
LeftToeBase 19.110469 -0.000000 -0.000000
RightUpLeg -88.391847 7.100778 17.824348
RightLeg 147.627282 -0.000000 -0.000000
RightFoot -38.419670 -38.579532 16.718794
RightToeBase 15.859665 -0.000000 -0.000000
323
root 30.606730 6.359890 -23.646289 -248.826475 90.727877 -204.006715
Spine 78.259533 7.053171 1.885328
Head 10.897382 -1.190501 5.524693
LeftShoulder 2.468721 -16.583125 -0.044468
LeftArm -10.745290 37.291969 -87.403276
LeftForeArm 22.520279 -0.000000 8.539145
LeftHand 8.436865 -0.000000 80.009330
LeftHandThumb1 -26.253704 0.000000 33.147579
RightShoulder 4.334373 -21.762116 -1.930950
RightArm 38.976111 -44.305150 47.276489
RightForeArm -23.946268 -0.000000 18.116686
RightHand -5.513321 -0.000000 -53.841343
RightHandThumb1 -24.326973 -0.000000 -32.862282
LeftUpLeg -89.194706 3.142207 -11.491357
LeftLeg 150.266016 -0.000000 -0.000000
LeftFoot -39.548501 35.122269 -15.504998
LeftToeBase 19.080108 -0.000000 -0.000000
RightUpLeg -88.236829 6.935340 18.075275
RightLeg 147.924970 -0.000000 -0.000000
RightFoot -37.691164 -39.016436 16.262024
RightToeBase 15.226431 -0.000000 -0.000000
324
root 30.605959 6.218832 -23.643571 -252.770302 90.664930 -206.899777
Spine 78.003972 7.094193 2.203857
Head 11.378610 -1.492481 5.410903
LeftShoulder 2.144011 -16.161811 1.098929
LeftArm -11.739428 35.588877 -88.280633
LeftForeArm 24.421513 0.000000 10.870657
LeftHand 9.161291 -0.000000 79.246451
LeftHandThumb1 -26.253704 0.000000 33.147579
RightShoulder 3.857220 -21.429594 -1.842793
RightArm 37.346844 -44.630429 48.978826
RightForeArm -24.631414 -0.000000 17.930816
RightHand -4.950106 0.000000 -55.951688
RightHandThumb1 -24.326973 -0.000000 -32.862282
LeftUpLeg -89.132352 3.179077 -11.596705
LeftLeg 150.522076 -0.000000 -0.000000
LeftFoot -38.605952 35.379275 -15.106185
LeftToeBase 18.532240 -0.000000 -0.000000
RightUpLeg -88.110406 6.746246 18.296076
RightLeg 148.211392 -0.000000 -0.000000
RightFoot -36.895266 -39.134060 15.732519
RightToeBase 14.904314 -0.000000 -0.000000
